<svg xmlns="http://www.w3.org/2000/svg" viewBox="0 0 800 185" width="800" height="185">
<style>text { font-family: "Helvetica Neue", Helvetica, Arial, sans-serif; }</style>
<rect width="800" height="185" fill="white"/>
<text x="400" y="21" font-size="15" font-weight="bold" fill="#333" text-anchor="middle" dominant-baseline="central">Fragment Identity Heatmap</text>
<text x="195.0" y="57" font-size="11" font-weight="bold" fill="#333" text-anchor="middle" dominant-baseline="central">1</text>
<text x="195.0" y="73" font-size="9" fill="#666" text-anchor="middle" dominant-baseline="central">97.5%</text>
<text x="225.0" y="57" font-size="11" font-weight="bold" fill="#333" text-anchor="middle" dominant-baseline="central">2</text>
<text x="225.0" y="73" font-size="9" fill="#666" text-anchor="middle" dominant-baseline="central">97.0%</text>
<text x="255.0" y="57" font-size="11" font-weight="bold" fill="#333" text-anchor="middle" dominant-baseline="central">3</text>
<text x="255.0" y="73" font-size="9" fill="#666" text-anchor="middle" dominant-baseline="central">96.5%</text>
<circle cx="12" cy="100.0" r="5" fill="#2ca02c"/>
<text x="24" y="100.0" font-size="10" fill="#333" dominant-baseline="central">sample_0</text>
<rect x="180" y="85" width="30" height="30" fill="#ffff99" stroke="#eee" stroke-width="1"/>
<text x="195.0" y="100.0" font-size="8" fill="#333" text-anchor="middle" dominant-baseline="central">98.5</text>
<rect x="210" y="85" width="30" height="30" fill="#ffff66" stroke="#eee" stroke-width="1"/>
<text x="225.0" y="100.0" font-size="8" fill="#333" text-anchor="middle" dominant-baseline="central">98.0</text>
<rect x="240" y="85" width="30" height="30" fill="#ffff33" stroke="#eee" stroke-width="1"/>
<text x="255.0" y="100.0" font-size="8" fill="#333" text-anchor="middle" dominant-baseline="central">97.5</text>
<circle cx="12" cy="130.0" r="5" fill="#2ca02c"/>
<text x="24" y="130.0" font-size="10" fill="#333" dominant-baseline="central">sample_1</text>
<rect x="180" y="115" width="30" height="30" fill="#ffff33" stroke="#eee" stroke-width="1"/>
<text x="195.0" y="130.0" font-size="8" fill="#333" text-anchor="middle" dominant-baseline="central">97.5</text>
<rect x="210" y="115" width="30" height="30" fill="#ffff00" stroke="#eee" stroke-width="1"/>
<text x="225.0" y="130.0" font-size="8" fill="#333" text-anchor="middle" dominant-baseline="central">97.0</text>
<rect x="240" y="115" width="30" height="30" fill="#ffe500" stroke="#eee" stroke-width="1"/>
<text x="255.0" y="130.0" font-size="8" fill="#333" text-anchor="middle" dominant-baseline="central">96.5</text>
<circle cx="12" cy="160.0" r="5" fill="#2ca02c"/>
<text x="24" y="160.0" font-size="10" fill="#333" dominant-baseline="central">sample_2</text>
<rect x="180" y="145" width="30" height="30" fill="#ffe500" stroke="#eee" stroke-width="1"/>
<text x="195.0" y="160.0" font-size="8" fill="#333" text-anchor="middle" dominant-baseline="central">96.5</text>
<rect x="210" y="145" width="30" height="30" fill="#ffcc00" stroke="#eee" stroke-width="1"/>
<text x="225.0" y="160.0" font-size="8" fill="#333" text-anchor="middle" dominant-baseline="central">96.0</text>
<rect x="240" y="145" width="30" height="30" fill="#ffb200" stroke="#eee" stroke-width="1"/>
<text x="255.0" y="160.0" font-size="8" fill="#333" text-anchor="middle" dominant-baseline="central">95.5</text>
</svg>