<svg xmlns="http://www.w3.org/2000/svg" viewBox="0 0 800 400" width="800" height="400">
<style>
  text { font-family: "Helvetica Neue", Helvetica, Arial, sans-serif; }
</style>
<rect width="800" height="400" fill="white"/>
<text x="400.0" y="30" font-size="18" font-weight="bold" fill="#333" text-anchor="middle">GS Type Distribution</text>
<line x1="60" y1="320.0" x2="770" y2="320.0" stroke="#e0e0e0" stroke-width="1"/>
<text x="52" y="320.0" font-size="10" fill="#666" text-anchor="end" dominant-baseline="central">0</text>
<line x1="60" y1="233.3" x2="770" y2="233.3" stroke="#e0e0e0" stroke-width="1"/>
<text x="52" y="233.3" font-size="10" fill="#666" text-anchor="end" dominant-baseline="central">5</text>
<line x1="60" y1="146.7" x2="770" y2="146.7" stroke="#e0e0e0" stroke-width="1"/>
<text x="52" y="146.7" font-size="10" fill="#666" text-anchor="end" dominant-baseline="central">10</text>
<line x1="60" y1="60.0" x2="770" y2="60.0" stroke="#e0e0e0" stroke-width="1"/>
<text x="52" y="60.0" font-size="10" fill="#666" text-anchor="end" dominant-baseline="central">15</text>
<text x="15" y="190.0" font-size="12" fill="#666" text-anchor="middle" dominant-baseline="central" transform="rotate(-90, 15, 190.0)">Count</text>
<line x1="60" y1="320" x2="770" y2="320" stroke="#333" stroke-width="1"/>
<rect x="101.4" y="60.0" width="153.8" height="260.0" fill="#4878cf" rx="2"/>
<text x="178.3" y="54.0" font-size="10" fill="#333" text-anchor="middle">58%</text>
<text x="178.3" y="338" font-size="11" fill="#333" text-anchor="middle">GS1.0</text>
<rect x="338.1" y="181.3" width="153.8" height="138.7" fill="#4878cf" rx="2"/>
<text x="415.0" y="175.3" font-size="10" fill="#333" text-anchor="middle">31%</text>
<text x="415.0" y="338" font-size="11" fill="#333" text-anchor="middle">GS2.1</text>
<rect x="574.7" y="268.0" width="153.8" height="52.0" fill="#4878cf" rx="2"/>
<text x="651.7" y="262.0" font-size="10" fill="#333" text-anchor="middle">12%</text>
<text x="651.7" y="338" font-size="11" fill="#333" text-anchor="middle">GS1.3</text>
</svg>